<mxfile host="app.diagrams.net" modified="2023-12-08T16:59:11.479Z" agent="Mozilla/5.0 (Macintosh; Intel Mac OS X 10_15_7) AppleWebKit/537.36 (KHTML, like Gecko) Chrome/119.0.0.0 Safari/537.36" etag="-p-Ifg91kI0DVlVsWEL2" version="22.1.7" type="device">
  <diagram name="Side-1" id="m5En7niOkZaDwD6gpSHK">
    <mxGraphModel dx="1122" dy="755" grid="0" gridSize="10" guides="1" tooltips="1" connect="1" arrows="1" fold="1" page="1" pageScale="1" pageWidth="827" pageHeight="1169" background="#7EA6E0" math="0" shadow="0">
      <root>
        <mxCell id="0" />
        <mxCell id="1" parent="0" />
        <mxCell id="iY1xp2aPpr9QxUYA5ElN-1" value="" style="rounded=0;whiteSpace=wrap;html=1;" parent="1" vertex="1">
          <mxGeometry x="355" y="280" width="125" height="120" as="geometry" />
        </mxCell>
        <mxCell id="iY1xp2aPpr9QxUYA5ElN-2" value="" style="rounded=0;whiteSpace=wrap;html=1;" parent="1" vertex="1">
          <mxGeometry x="350" y="600" width="130" height="100" as="geometry" />
        </mxCell>
        <mxCell id="iY1xp2aPpr9QxUYA5ElN-4" value="" style="rounded=0;whiteSpace=wrap;html=1;" parent="1" vertex="1">
          <mxGeometry x="600" y="600" width="120" height="100" as="geometry" />
        </mxCell>
        <mxCell id="iY1xp2aPpr9QxUYA5ElN-5" value="" style="rounded=0;whiteSpace=wrap;html=1;" parent="1" vertex="1">
          <mxGeometry x="140" y="280" width="120" height="80" as="geometry" />
        </mxCell>
        <mxCell id="iY1xp2aPpr9QxUYA5ElN-7" value="" style="endArrow=none;html=1;rounded=0;entryX=0;entryY=0.5;entryDx=0;entryDy=0;exitX=1;exitY=0.5;exitDx=0;exitDy=0;" parent="1" source="iY1xp2aPpr9QxUYA5ElN-2" target="iY1xp2aPpr9QxUYA5ElN-4" edge="1">
          <mxGeometry width="50" height="50" relative="1" as="geometry">
            <mxPoint x="390" y="360" as="sourcePoint" />
            <mxPoint x="440" y="310" as="targetPoint" />
          </mxGeometry>
        </mxCell>
        <mxCell id="iY1xp2aPpr9QxUYA5ElN-9" value="" style="endArrow=none;html=1;rounded=0;entryX=1;entryY=0.5;entryDx=0;entryDy=0;exitX=0;exitY=0.333;exitDx=0;exitDy=0;exitPerimeter=0;" parent="1" source="iY1xp2aPpr9QxUYA5ElN-1" target="iY1xp2aPpr9QxUYA5ElN-5" edge="1">
          <mxGeometry width="50" height="50" relative="1" as="geometry">
            <mxPoint x="350" y="320" as="sourcePoint" />
            <mxPoint x="430" y="300" as="targetPoint" />
          </mxGeometry>
        </mxCell>
        <mxCell id="iY1xp2aPpr9QxUYA5ElN-10" value="Medlem" style="text;html=1;align=center;verticalAlign=middle;resizable=0;points=[];autosize=1;strokeColor=none;fillColor=none;" parent="1" vertex="1">
          <mxGeometry x="382.5" y="280" width="70" height="30" as="geometry" />
        </mxCell>
        <mxCell id="iY1xp2aPpr9QxUYA5ElN-11" value="" style="endArrow=none;html=1;rounded=0;exitX=0;exitY=0.25;exitDx=0;exitDy=0;entryX=1;entryY=0.25;entryDx=0;entryDy=0;" parent="1" source="iY1xp2aPpr9QxUYA5ElN-1" target="iY1xp2aPpr9QxUYA5ElN-1" edge="1">
          <mxGeometry width="50" height="50" relative="1" as="geometry">
            <mxPoint x="390" y="380" as="sourcePoint" />
            <mxPoint x="440" y="330" as="targetPoint" />
          </mxGeometry>
        </mxCell>
        <mxCell id="iY1xp2aPpr9QxUYA5ElN-12" value="&lt;font style=&quot;font-size: 10px;&quot;&gt;navn&lt;br&gt;alder&lt;br&gt;aktivitetsform&lt;br&gt;svÃ¸mmeDisciplin&lt;br&gt;resultat&lt;/font&gt;" style="text;html=1;align=left;verticalAlign=middle;resizable=0;points=[];autosize=1;strokeColor=none;fillColor=none;" parent="1" vertex="1">
          <mxGeometry x="355" y="300" width="100" height="90" as="geometry" />
        </mxCell>
        <mxCell id="iY1xp2aPpr9QxUYA5ElN-13" value="Kasserer" style="text;html=1;align=center;verticalAlign=middle;resizable=0;points=[];autosize=1;strokeColor=none;fillColor=none;" parent="1" vertex="1">
          <mxGeometry x="165" y="280" width="70" height="30" as="geometry" />
        </mxCell>
        <mxCell id="iY1xp2aPpr9QxUYA5ElN-14" value="" style="endArrow=none;html=1;rounded=0;exitX=-0.002;exitY=0.289;exitDx=0;exitDy=0;entryX=0.999;entryY=0.289;entryDx=0;entryDy=0;entryPerimeter=0;exitPerimeter=0;" parent="1" source="iY1xp2aPpr9QxUYA5ElN-5" target="iY1xp2aPpr9QxUYA5ElN-5" edge="1">
          <mxGeometry width="50" height="50" relative="1" as="geometry">
            <mxPoint x="260" y="380" as="sourcePoint" />
            <mxPoint x="310" y="330" as="targetPoint" />
          </mxGeometry>
        </mxCell>
        <mxCell id="iY1xp2aPpr9QxUYA5ElN-15" value="&lt;font style=&quot;font-size: 10px;&quot;&gt;kontingent betaling&lt;br&gt;Senior takst rabat&lt;br&gt;Passiv takst&lt;br&gt;forventet indkomst&lt;/font&gt;" style="text;html=1;align=left;verticalAlign=middle;resizable=0;points=[];autosize=1;strokeColor=none;fillColor=none;" parent="1" vertex="1">
          <mxGeometry x="140" y="295" width="110" height="70" as="geometry" />
        </mxCell>
        <mxCell id="iY1xp2aPpr9QxUYA5ElN-16" value="" style="endArrow=none;html=1;rounded=0;entryX=0.515;entryY=0.999;entryDx=0;entryDy=0;entryPerimeter=0;" parent="1" target="iY1xp2aPpr9QxUYA5ElN-1" edge="1">
          <mxGeometry width="50" height="50" relative="1" as="geometry">
            <mxPoint x="419" y="450" as="sourcePoint" />
            <mxPoint x="418.37" y="400" as="targetPoint" />
          </mxGeometry>
        </mxCell>
        <mxCell id="iY1xp2aPpr9QxUYA5ElN-17" value="" style="rounded=0;whiteSpace=wrap;html=1;" parent="1" vertex="1">
          <mxGeometry x="240" y="470" width="120" height="70" as="geometry" />
        </mxCell>
        <mxCell id="iY1xp2aPpr9QxUYA5ElN-18" value="" style="endArrow=none;html=1;rounded=0;" parent="1" edge="1">
          <mxGeometry width="50" height="50" relative="1" as="geometry">
            <mxPoint x="420" y="450" as="sourcePoint" />
            <mxPoint x="300" y="450" as="targetPoint" />
          </mxGeometry>
        </mxCell>
        <mxCell id="iY1xp2aPpr9QxUYA5ElN-19" value="" style="endArrow=none;html=1;rounded=0;" parent="1" edge="1">
          <mxGeometry width="50" height="50" relative="1" as="geometry">
            <mxPoint x="300" y="450" as="sourcePoint" />
            <mxPoint x="300" y="470" as="targetPoint" />
          </mxGeometry>
        </mxCell>
        <mxCell id="iY1xp2aPpr9QxUYA5ElN-20" value="" style="endArrow=none;html=1;rounded=0;" parent="1" edge="1">
          <mxGeometry width="50" height="50" relative="1" as="geometry">
            <mxPoint x="540" y="450" as="sourcePoint" />
            <mxPoint x="420" y="450" as="targetPoint" />
          </mxGeometry>
        </mxCell>
        <mxCell id="iY1xp2aPpr9QxUYA5ElN-21" value="" style="rounded=0;whiteSpace=wrap;html=1;" parent="1" vertex="1">
          <mxGeometry x="470" y="470" width="120" height="70" as="geometry" />
        </mxCell>
        <mxCell id="iY1xp2aPpr9QxUYA5ElN-22" value="" style="endArrow=none;html=1;rounded=0;" parent="1" edge="1">
          <mxGeometry width="50" height="50" relative="1" as="geometry">
            <mxPoint x="540" y="450" as="sourcePoint" />
            <mxPoint x="540" y="470" as="targetPoint" />
          </mxGeometry>
        </mxCell>
        <mxCell id="iY1xp2aPpr9QxUYA5ElN-24" value="" style="endArrow=none;html=1;rounded=0;exitX=0.869;exitY=1.004;exitDx=0;exitDy=0;exitPerimeter=0;" parent="1" source="iY1xp2aPpr9QxUYA5ElN-28" edge="1">
          <mxGeometry width="50" height="50" relative="1" as="geometry">
            <mxPoint x="299.78" y="530" as="sourcePoint" />
            <mxPoint x="299.78" y="560" as="targetPoint" />
          </mxGeometry>
        </mxCell>
        <mxCell id="iY1xp2aPpr9QxUYA5ElN-25" value="" style="endArrow=none;html=1;rounded=0;" parent="1" edge="1">
          <mxGeometry width="50" height="50" relative="1" as="geometry">
            <mxPoint x="540" y="560" as="sourcePoint" />
            <mxPoint x="300" y="560" as="targetPoint" />
          </mxGeometry>
        </mxCell>
        <mxCell id="iY1xp2aPpr9QxUYA5ElN-26" value="" style="endArrow=none;html=1;rounded=0;entryX=0.515;entryY=0.999;entryDx=0;entryDy=0;entryPerimeter=0;" parent="1" edge="1">
          <mxGeometry width="50" height="50" relative="1" as="geometry">
            <mxPoint x="417.28" y="600" as="sourcePoint" />
            <mxPoint x="417.28" y="560" as="targetPoint" />
          </mxGeometry>
        </mxCell>
        <mxCell id="iY1xp2aPpr9QxUYA5ElN-28" value="&lt;br&gt;&lt;div style=&quot;text-align: left;&quot;&gt;&lt;span style=&quot;font-size: 10px; background-color: initial;&quot;&gt;Medlemmer&lt;/span&gt;&lt;/div&gt;&lt;font style=&quot;font-size: 10px;&quot;&gt;&lt;div style=&quot;text-align: left;&quot;&gt;&lt;span style=&quot;background-color: initial;&quot;&gt;Discipliner&lt;/span&gt;&lt;/div&gt;&lt;div style=&quot;text-align: left;&quot;&gt;&lt;span style=&quot;background-color: initial;&quot;&gt;Resultater&lt;/span&gt;&lt;/div&gt;&lt;/font&gt;" style="text;html=1;align=center;verticalAlign=middle;resizable=0;points=[];autosize=1;strokeColor=none;fillColor=none;" parent="1" vertex="1">
          <mxGeometry x="230" y="470" width="80" height="70" as="geometry" />
        </mxCell>
        <mxCell id="iY1xp2aPpr9QxUYA5ElN-29" value="" style="endArrow=none;html=1;rounded=0;exitX=-0.002;exitY=0.289;exitDx=0;exitDy=0;entryX=0.999;entryY=0.289;entryDx=0;entryDy=0;entryPerimeter=0;exitPerimeter=0;" parent="1" edge="1">
          <mxGeometry width="50" height="50" relative="1" as="geometry">
            <mxPoint x="240" y="494.86999999999995" as="sourcePoint" />
            <mxPoint x="360" y="494.86999999999995" as="targetPoint" />
          </mxGeometry>
        </mxCell>
        <mxCell id="iY1xp2aPpr9QxUYA5ElN-32" value="&lt;br&gt;&lt;div style=&quot;text-align: left;&quot;&gt;&lt;span style=&quot;font-size: 10px; background-color: initial;&quot;&gt;Medlemmer&lt;/span&gt;&lt;/div&gt;&lt;font style=&quot;font-size: 10px;&quot;&gt;&lt;div style=&quot;text-align: left;&quot;&gt;&lt;span style=&quot;background-color: initial;&quot;&gt;Discipliner&lt;/span&gt;&lt;/div&gt;&lt;div style=&quot;text-align: left;&quot;&gt;&lt;span style=&quot;background-color: initial;&quot;&gt;Resultater&lt;/span&gt;&lt;/div&gt;&lt;/font&gt;" style="text;html=1;align=center;verticalAlign=middle;resizable=0;points=[];autosize=1;strokeColor=none;fillColor=none;" parent="1" vertex="1">
          <mxGeometry x="460" y="470" width="80" height="70" as="geometry" />
        </mxCell>
        <mxCell id="iY1xp2aPpr9QxUYA5ElN-33" value="Senior" style="text;html=1;align=center;verticalAlign=middle;resizable=0;points=[];autosize=1;strokeColor=none;fillColor=none;" parent="1" vertex="1">
          <mxGeometry x="270" y="470" width="60" height="30" as="geometry" />
        </mxCell>
        <mxCell id="iY1xp2aPpr9QxUYA5ElN-34" value="Junior" style="text;html=1;align=center;verticalAlign=middle;resizable=0;points=[];autosize=1;strokeColor=none;fillColor=none;" parent="1" vertex="1">
          <mxGeometry x="510" y="470" width="60" height="30" as="geometry" />
        </mxCell>
        <mxCell id="iY1xp2aPpr9QxUYA5ElN-38" value="" style="endArrow=none;html=1;rounded=0;entryX=0.994;entryY=0.352;entryDx=0;entryDy=0;entryPerimeter=0;exitX=0.012;exitY=0.364;exitDx=0;exitDy=0;exitPerimeter=0;" parent="1" source="iY1xp2aPpr9QxUYA5ElN-21" target="iY1xp2aPpr9QxUYA5ElN-21" edge="1">
          <mxGeometry width="50" height="50" relative="1" as="geometry">
            <mxPoint x="390" y="520" as="sourcePoint" />
            <mxPoint x="440" y="470" as="targetPoint" />
          </mxGeometry>
        </mxCell>
        <mxCell id="iY1xp2aPpr9QxUYA5ElN-39" value="" style="endArrow=none;html=1;rounded=0;exitX=0.869;exitY=1.004;exitDx=0;exitDy=0;exitPerimeter=0;" parent="1" edge="1">
          <mxGeometry width="50" height="50" relative="1" as="geometry">
            <mxPoint x="540.22" y="540" as="sourcePoint" />
            <mxPoint x="540" y="560" as="targetPoint" />
          </mxGeometry>
        </mxCell>
        <mxCell id="iY1xp2aPpr9QxUYA5ElN-40" value="Konkurrence svÃ¸mmere" style="text;html=1;align=center;verticalAlign=middle;resizable=0;points=[];autosize=1;strokeColor=none;fillColor=none;" parent="1" vertex="1">
          <mxGeometry x="340" y="600" width="150" height="30" as="geometry" />
        </mxCell>
        <mxCell id="iY1xp2aPpr9QxUYA5ElN-42" value="" style="endArrow=none;html=1;rounded=0;entryX=0.933;entryY=0.995;entryDx=0;entryDy=0;entryPerimeter=0;exitX=0.012;exitY=0.364;exitDx=0;exitDy=0;exitPerimeter=0;" parent="1" target="iY1xp2aPpr9QxUYA5ElN-40" edge="1">
          <mxGeometry width="50" height="50" relative="1" as="geometry">
            <mxPoint x="350" y="630" as="sourcePoint" />
            <mxPoint x="468" y="630" as="targetPoint" />
          </mxGeometry>
        </mxCell>
        <mxCell id="iY1xp2aPpr9QxUYA5ElN-43" value="&lt;div style=&quot;text-align: left;&quot;&gt;&lt;span style=&quot;font-size: 10px; background-color: initial;&quot;&gt;TrÃ¦ner&lt;/span&gt;&lt;/div&gt;&lt;font style=&quot;font-size: 10px;&quot;&gt;&lt;div style=&quot;text-align: left;&quot;&gt;&lt;span style=&quot;background-color: initial;&quot;&gt;Resultat&lt;/span&gt;&lt;/div&gt;&lt;div style=&quot;text-align: left;&quot;&gt;&lt;span style=&quot;background-color: initial;&quot;&gt;Placering&lt;/span&gt;&lt;/div&gt;&lt;div style=&quot;text-align: left;&quot;&gt;&lt;span style=&quot;background-color: initial;&quot;&gt;Disciplin&lt;/span&gt;&lt;/div&gt;&lt;div style=&quot;text-align: left;&quot;&gt;&lt;span style=&quot;background-color: initial;&quot;&gt;StÃ¦vne&lt;/span&gt;&lt;/div&gt;&lt;/font&gt;" style="text;html=1;align=center;verticalAlign=middle;resizable=0;points=[];autosize=1;strokeColor=none;fillColor=none;" parent="1" vertex="1">
          <mxGeometry x="340" y="620" width="70" height="80" as="geometry" />
        </mxCell>
        <mxCell id="iY1xp2aPpr9QxUYA5ElN-44" value="TrÃ¦ner" style="text;html=1;align=center;verticalAlign=middle;resizable=0;points=[];autosize=1;strokeColor=none;fillColor=none;" parent="1" vertex="1">
          <mxGeometry x="630" y="600" width="60" height="30" as="geometry" />
        </mxCell>
        <mxCell id="iY1xp2aPpr9QxUYA5ElN-46" value="" style="endArrow=none;html=1;rounded=0;entryX=0.994;entryY=0.352;entryDx=0;entryDy=0;entryPerimeter=0;exitX=0.012;exitY=0.364;exitDx=0;exitDy=0;exitPerimeter=0;" parent="1" edge="1">
          <mxGeometry width="50" height="50" relative="1" as="geometry">
            <mxPoint x="601" y="629.59" as="sourcePoint" />
            <mxPoint x="719" y="629.59" as="targetPoint" />
          </mxGeometry>
        </mxCell>
        <mxCell id="iY1xp2aPpr9QxUYA5ElN-47" value="&lt;div style=&quot;text-align: left;&quot;&gt;&lt;span style=&quot;font-size: 10px; background-color: initial;&quot;&gt;Navn&lt;/span&gt;&lt;/div&gt;&lt;font style=&quot;font-size: 10px;&quot;&gt;&lt;div style=&quot;text-align: left;&quot;&gt;&lt;span style=&quot;background-color: initial;&quot;&gt;Junior trÃ¦ner&lt;/span&gt;&lt;/div&gt;&lt;div style=&quot;text-align: left;&quot;&gt;&lt;span style=&quot;background-color: initial;&quot;&gt;Senior trÃ¦ner&lt;/span&gt;&lt;/div&gt;&lt;/font&gt;" style="text;html=1;align=center;verticalAlign=middle;resizable=0;points=[];autosize=1;strokeColor=none;fillColor=none;" parent="1" vertex="1">
          <mxGeometry x="600" y="625" width="80" height="50" as="geometry" />
        </mxCell>
        <mxCell id="iY1xp2aPpr9QxUYA5ElN-48" value="&lt;font style=&quot;font-size: 9px;&quot;&gt;Betaling&lt;/font&gt;" style="text;html=1;align=center;verticalAlign=middle;resizable=0;points=[];autosize=1;strokeColor=none;fillColor=none;" parent="1" vertex="1">
          <mxGeometry x="275" y="290" width="60" height="30" as="geometry" />
        </mxCell>
        <mxCell id="iY1xp2aPpr9QxUYA5ElN-49" value="&lt;font style=&quot;font-size: 9px;&quot;&gt;Aldersgruppe &amp;lt; 18&lt;/font&gt;" style="text;html=1;align=center;verticalAlign=middle;resizable=0;points=[];autosize=1;strokeColor=none;fillColor=none;" parent="1" vertex="1">
          <mxGeometry x="440" y="420" width="100" height="30" as="geometry" />
        </mxCell>
        <mxCell id="iY1xp2aPpr9QxUYA5ElN-50" value="&lt;font style=&quot;font-size: 9px;&quot;&gt;Aldersgruppe &amp;gt;= 18&lt;/font&gt;" style="text;html=1;align=center;verticalAlign=middle;resizable=0;points=[];autosize=1;strokeColor=none;fillColor=none;" parent="1" vertex="1">
          <mxGeometry x="290" y="420" width="100" height="30" as="geometry" />
        </mxCell>
        <mxCell id="iY1xp2aPpr9QxUYA5ElN-51" value="" style="rounded=0;whiteSpace=wrap;html=1;" parent="1" vertex="1">
          <mxGeometry x="349" y="790" width="130" height="90" as="geometry" />
        </mxCell>
        <mxCell id="iY1xp2aPpr9QxUYA5ElN-52" value="StÃ¦vne" style="text;html=1;align=center;verticalAlign=middle;resizable=0;points=[];autosize=1;strokeColor=none;fillColor=none;" parent="1" vertex="1">
          <mxGeometry x="384" y="790" width="60" height="30" as="geometry" />
        </mxCell>
        <mxCell id="iY1xp2aPpr9QxUYA5ElN-53" value="" style="endArrow=none;html=1;rounded=0;entryX=0.933;entryY=0.995;entryDx=0;entryDy=0;entryPerimeter=0;exitX=0.012;exitY=0.364;exitDx=0;exitDy=0;exitPerimeter=0;" parent="1" edge="1">
          <mxGeometry width="50" height="50" relative="1" as="geometry">
            <mxPoint x="349" y="819.2" as="sourcePoint" />
            <mxPoint x="479" y="819.2" as="targetPoint" />
          </mxGeometry>
        </mxCell>
        <mxCell id="iY1xp2aPpr9QxUYA5ElN-54" value="" style="endArrow=none;html=1;rounded=0;entryX=0.515;entryY=0.999;entryDx=0;entryDy=0;entryPerimeter=0;exitX=0.522;exitY=-0.027;exitDx=0;exitDy=0;exitPerimeter=0;" parent="1" source="iY1xp2aPpr9QxUYA5ElN-52" edge="1">
          <mxGeometry width="50" height="50" relative="1" as="geometry">
            <mxPoint x="414.73999999999995" y="740" as="sourcePoint" />
            <mxPoint x="414.73999999999995" y="700" as="targetPoint" />
          </mxGeometry>
        </mxCell>
        <mxCell id="iY1xp2aPpr9QxUYA5ElN-55" value="Medlem&lt;br&gt;Disciplin&lt;br&gt;Resultat" style="text;html=1;align=center;verticalAlign=middle;resizable=0;points=[];autosize=1;strokeColor=none;fillColor=none;" parent="1" vertex="1">
          <mxGeometry x="344" y="820" width="70" height="60" as="geometry" />
        </mxCell>
        <mxCell id="iY1xp2aPpr9QxUYA5ElN-56" value="&lt;font style=&quot;font-size: 9px;&quot;&gt;Bedste resultater&lt;/font&gt;" style="text;html=1;align=center;verticalAlign=middle;resizable=0;points=[];autosize=1;strokeColor=none;fillColor=none;rotation=90;" parent="1" vertex="1">
          <mxGeometry x="380" y="730" width="90" height="30" as="geometry" />
        </mxCell>
        <mxCell id="iY1xp2aPpr9QxUYA5ElN-57" value="Har" style="text;html=1;align=center;verticalAlign=middle;resizable=0;points=[];autosize=1;strokeColor=none;fillColor=none;" parent="1" vertex="1">
          <mxGeometry x="520" y="620" width="40" height="30" as="geometry" />
        </mxCell>
      </root>
    </mxGraphModel>
  </diagram>
</mxfile>
